<svg xmlns="http://www.w3.org/2000/svg" viewBox="0 0 360 420" role="img" aria-labelledby="title">
  <title>Ceramic Tea Glass Set hero</title>
  <defs>
    <linearGradient id="bg" x1="0" x2="1" y1="0" y2="1">
      <stop offset="0%" stop-color="#fff7ec"/>
      <stop offset="100%" stop-color="#efcfb0"/>
    </linearGradient>
  </defs>
  <rect width="360" height="420" fill="url(#bg)"/>
  <circle cx="286" cy="74" r="48" fill="#d97f3b" opacity=".18"/>
  <rect x="52" y="258" width="256" height="56" rx="28" fill="#c1804d" opacity=".35"/>
  <g fill="#f7e7d3" stroke="#8d5f3f" stroke-width="6">
    <path d="M98 120h46c12 0 18 7 18 20v88c0 17-13 32-32 32H112c-19 0-32-15-32-32v-88c0-13 6-20 18-20z"/>
    <path d="M158 138h18c16 0 24 10 24 25 0 16-9 25-24 25h-14" fill="none"/>
    <path d="M168 106h46c12 0 18 7 18 20v102c0 17-13 32-32 32h-18c-19 0-32-15-32-32V126c0-13 6-20 18-20z" fill="#ead3bc"/>
    <path d="M228 124h18c16 0 24 10 24 25 0 16-9 25-24 25h-14" fill="none"/>
  </g>
  <text x="36" y="370" fill="#5a3b28" font-family="Georgia, serif" font-size="28">Ceramic Tea Glass Set</text>
  <text x="36" y="398" fill="#8d5f3f" font-family="Segoe UI, sans-serif" font-size="16">Desert glaze edition</text>
</svg>
